<mxfile host="app.diagrams.net" modified="2023-05-24T15:27:46.802Z" agent="Mozilla/5.0 (Windows NT 10.0; Win64; x64) AppleWebKit/537.36 (KHTML, like Gecko) Chrome/113.0.0.0 Safari/537.36 Edg/113.0.1774.50" etag="KkirGFlPWKkGuYE-xmJA" version="21.3.2" type="github">
  <diagram name="第 1 页" id="3CacuVIDQZjq0wiTaqe1">
    <mxGraphModel dx="954" dy="576" grid="1" gridSize="10" guides="1" tooltips="1" connect="1" arrows="1" fold="1" page="1" pageScale="1" pageWidth="1169" pageHeight="827" math="0" shadow="0">
      <root>
        <mxCell id="0" />
        <mxCell id="1" parent="0" />
        <mxCell id="Vm8O9mgK5pS1D8OPGeQq-6" style="edgeStyle=orthogonalEdgeStyle;rounded=0;orthogonalLoop=1;jettySize=auto;html=1;exitX=1;exitY=0.5;exitDx=0;exitDy=0;entryX=0;entryY=0.5;entryDx=0;entryDy=0;" edge="1" parent="1" source="Vm8O9mgK5pS1D8OPGeQq-1" target="Vm8O9mgK5pS1D8OPGeQq-2">
          <mxGeometry relative="1" as="geometry" />
        </mxCell>
        <mxCell id="Vm8O9mgK5pS1D8OPGeQq-1" value="服务端" style="rounded=1;whiteSpace=wrap;html=1;" vertex="1" parent="1">
          <mxGeometry x="160" y="310" width="120" height="60" as="geometry" />
        </mxCell>
        <mxCell id="Vm8O9mgK5pS1D8OPGeQq-12" value="" style="edgeStyle=orthogonalEdgeStyle;rounded=0;orthogonalLoop=1;jettySize=auto;html=1;" edge="1" parent="1" source="Vm8O9mgK5pS1D8OPGeQq-2" target="Vm8O9mgK5pS1D8OPGeQq-11">
          <mxGeometry relative="1" as="geometry" />
        </mxCell>
        <mxCell id="Vm8O9mgK5pS1D8OPGeQq-2" value="云" style="rounded=1;whiteSpace=wrap;html=1;" vertex="1" parent="1">
          <mxGeometry x="440" y="310" width="120" height="60" as="geometry" />
        </mxCell>
        <mxCell id="Vm8O9mgK5pS1D8OPGeQq-9" style="edgeStyle=orthogonalEdgeStyle;rounded=0;orthogonalLoop=1;jettySize=auto;html=1;exitX=0;exitY=0.5;exitDx=0;exitDy=0;entryX=1;entryY=0.5;entryDx=0;entryDy=0;" edge="1" parent="1" source="Vm8O9mgK5pS1D8OPGeQq-4" target="Vm8O9mgK5pS1D8OPGeQq-2">
          <mxGeometry relative="1" as="geometry" />
        </mxCell>
        <mxCell id="Vm8O9mgK5pS1D8OPGeQq-4" value="用户" style="rounded=1;whiteSpace=wrap;html=1;" vertex="1" parent="1">
          <mxGeometry x="710" y="310" width="120" height="60" as="geometry" />
        </mxCell>
        <mxCell id="Vm8O9mgK5pS1D8OPGeQq-8" value="托管加密模型" style="text;html=1;align=center;verticalAlign=middle;resizable=0;points=[];autosize=1;strokeColor=none;fillColor=none;" vertex="1" parent="1">
          <mxGeometry x="305" y="310" width="100" height="30" as="geometry" />
        </mxCell>
        <mxCell id="Vm8O9mgK5pS1D8OPGeQq-10" value="实现密文预测" style="text;html=1;align=center;verticalAlign=middle;resizable=0;points=[];autosize=1;strokeColor=none;fillColor=none;" vertex="1" parent="1">
          <mxGeometry x="585" y="310" width="100" height="30" as="geometry" />
        </mxCell>
        <mxCell id="Vm8O9mgK5pS1D8OPGeQq-11" value="返回推理结果" style="rounded=1;whiteSpace=wrap;html=1;" vertex="1" parent="1">
          <mxGeometry x="440" y="450" width="120" height="60" as="geometry" />
        </mxCell>
      </root>
    </mxGraphModel>
  </diagram>
</mxfile>
